<?xml version="1.0"?>
<svg xmlns="http://www.w3.org/2000/svg" id="Layer_5" enable-background="new 0 0 64 64" height="512px" viewBox="0 0 64 64" width="512px"><g><path d="m60 25h-11.865l9.167-11-5.833-7h-12.937l-5.833 7 9.167 11h-11.866c-1.654 0-3 1.346-3 3 0 1.444 1.025 2.651 2.386 2.936-.148.294-.262.607-.323.941-.251.215-.483.45-.669.729l-5.148 7.723c-.988 1.482-2.566 2.431-4.31 2.63 1.274-1.27 2.064-3.024 2.064-4.959 0-3.859-3.14-7-7-7s-7 3.141-7 7c0 2.123.954 4.025 2.452 5.31-4.839 1.154-8.452 5.503-8.452 10.69v9h22v-13.246c2.444-.789 4.551-2.362 6.016-4.488.163 3.81 3.05 7.039 6.853 7.583l.131.018v10.133h18v-10.133l.131-.019c3.916-.56 6.869-3.964 6.869-7.92v-12.428c0-.565-.147-1.091-.386-1.564 1.361-.284 2.386-1.492 2.386-2.936 0-1.654-1.346-3-3-3zm-13.281-10-1.719 6.877-1.719-6.877zm-3.101-2 1.382-2.764 1.382 2.764zm5.163 2h5.084l-7.263 8.715zm.837-2 1.593-3.185 2.654 3.185zm-1.618-1.236-1.382-2.764h2.764zm-6 0-1.382-2.764h2.764zm-1.618 1.236h-4.247l2.654-3.185zm.837 2 2.179 8.715-7.263-8.715zm-27.219 32.197-1.465-2.197h2.93zm3.696-1.937-1.2 5.4-1.271-1.694zm-4.921 3.706-1.271 1.695-1.201-5.402zm-3.775-10.966c0-2.757 2.243-5 5-5s5 2.243 5 5-2.243 5-5 5-5-2.243-5-5zm18.455 6.015c-1.337 2.005-3.36 3.431-5.698 4.016l-.757.189v12.78h-13v-11h-2v11h-3v-7c0-3.671 2.211-6.83 5.369-8.229l2.126 9.567 3.505-4.671 3.505 4.673 2.336-10.512c2.052-.415 3.882-1.609 5.07-3.39l4.089-6.135v6.395zm31.545.914c0 2.967-2.215 5.521-5.152 5.939l-1.848.265v9.867h-14v-9.867l-1.849-.265c-2.936-.419-5.151-2.972-5.151-5.939v-12.429c0-.827.673-1.5 1.5-1.5s1.5.673 1.5 1.5v10.969c0 2.517 1.883 4.649 4.38 4.961l4.359.545-.778 8.4 3.039 3.039 3.039-3.039-.779-8.407 4.36-.538c2.497-.312 4.38-2.444 4.38-4.961v-10.969c0-.827.673-1.5 1.5-1.5s1.5.673 1.5 1.5zm-13.039 11.696-.961.961-.961-.961.706-7.629h.177c.026 0 .052.004.078.004h.255zm-.961-9.625c-2.757 0-5-2.243-5-5s2.243-5 5-5 5 2.243 5 5-2.243 5-5 5zm0-12c-3.86 0-7 3.141-7 7 0 1.753.652 3.353 1.721 4.582l-1.093-.137c-1.498-.187-2.628-1.466-2.628-2.976v-10.969c0-.539-.133-1.044-.351-1.5h18.702c-.218.456-.351.961-.351 1.5v10.969c0 1.51-1.13 2.789-2.628 2.977l-1.093.137c1.069-1.23 1.721-2.83 1.721-4.583 0-3.859-3.14-7-7-7zm15-6h-30c-.551 0-1-.448-1-1s.449-1 1-1h30c.551 0 1 .448 1 1s-.449 1-1 1z" data-original="#000000" class="active-path" data-old_color="#000000" fill="#F6AB00"/><path d="m44 1h2v4h-2z" data-original="#000000" class="active-path" data-old_color="#000000" fill="#F6AB00"/><path d="m32.5 3.379h2v4.243h-2z" transform="matrix(.707 -.707 .707 .707 5.923 25.299)" data-original="#000000" class="active-path" data-old_color="#000000" fill="#F6AB00"/><path d="m27 16h4v2h-4z" data-original="#000000" class="active-path" data-old_color="#000000" fill="#F6AB00"/><path d="m59 16h4v2h-4z" data-original="#000000" class="active-path" data-old_color="#000000" fill="#F6AB00"/><path d="m54.379 4.5h4.243v2h-4.243z" transform="matrix(.707 -.707 .707 .707 12.659 41.562)" data-original="#000000" class="active-path" data-old_color="#000000" fill="#F6AB00"/><path d="m16 16h2v2h-2z" data-original="#000000" class="active-path" data-old_color="#000000" fill="#F6AB00"/><path d="m14 18h2v2h-2z" data-original="#000000" class="active-path" data-old_color="#000000" fill="#F6AB00"/><path d="m16 20h2v2h-2z" data-original="#000000" class="active-path" data-old_color="#000000" fill="#F6AB00"/><path d="m18 18h2v2h-2z" data-original="#000000" class="active-path" data-old_color="#000000" fill="#F6AB00"/><path d="m26 7h2v2h-2z" data-original="#000000" class="active-path" data-old_color="#000000" fill="#F6AB00"/><path d="m24 9h2v2h-2z" data-original="#000000" class="active-path" data-old_color="#000000" fill="#F6AB00"/><path d="m26 11h2v2h-2z" data-original="#000000" class="active-path" data-old_color="#000000" fill="#F6AB00"/><path d="m28 9h2v2h-2z" data-original="#000000" class="active-path" data-old_color="#000000" fill="#F6AB00"/><path d="m16 3h2v2h-2z" data-original="#000000" class="active-path" data-old_color="#000000" fill="#F6AB00"/><path d="m14 5h2v2h-2z" data-original="#000000" class="active-path" data-old_color="#000000" fill="#F6AB00"/><path d="m16 7h2v2h-2z" data-original="#000000" class="active-path" data-old_color="#000000" fill="#F6AB00"/><path d="m18 5h2v2h-2z" data-original="#000000" class="active-path" data-old_color="#000000" fill="#F6AB00"/><path d="m8 22h2v2h-2z" data-original="#000000" class="active-path" data-old_color="#000000" fill="#F6AB00"/><path d="m6 24h2v2h-2z" data-original="#000000" class="active-path" data-old_color="#000000" fill="#F6AB00"/><path d="m8 26h2v2h-2z" data-original="#000000" class="active-path" data-old_color="#000000" fill="#F6AB00"/><path d="m10 24h2v2h-2z" data-original="#000000" class="active-path" data-old_color="#000000" fill="#F6AB00"/></g> </svg>
