<?xml version="1.0"?>
<svg xmlns="http://www.w3.org/2000/svg" xmlns:xlink="http://www.w3.org/1999/xlink" version="1.1" id="Capa_1" x="0px" y="0px" viewBox="0 0 480 480" style="enable-background:new 0 0 480 480;" xml:space="preserve" width="512px" height="512px" class=""><g><g>
	<g>
		<path d="M72,0C32.304,0,0,32.296,0,72s32.304,72,72,72s72-32.296,72-72S111.696,0,72,0z M72,128c-30.88,0-56-25.128-56-56    s25.12-56,56-56s56,25.128,56,56S102.88,128,72,128z" data-original="#000000" class="active-path" data-old_color="#000000" fill="#F6AB00"/>
	</g>
</g><g>
	<g>
		<path d="M240,0c-39.696,0-72,32.296-72,72s32.304,72,72,72s72-32.296,72-72S279.696,0,240,0z M240,128c-30.88,0-56-25.128-56-56    s25.12-56,56-56s56,25.128,56,56S270.88,128,240,128z" data-original="#000000" class="active-path" data-old_color="#000000" fill="#F6AB00"/>
	</g>
</g><g>
	<g>
		<path d="M408,0c-39.696,0-72,32.296-72,72s32.304,72,72,72s72-32.296,72-72S447.696,0,408,0z M408,128c-30.88,0-56-25.128-56-56    s25.12-56,56-56s56,25.128,56,56S438.88,128,408,128z" data-original="#000000" class="active-path" data-old_color="#000000" fill="#F6AB00"/>
	</g>
</g><g>
	<g>
		<path d="M80,32c-13.232,0-24,10.768-24,24v8h-8v16h8v32h16V80h8V64h-8v-8c0-4.416,3.592-8,8-8h8V32H80z" data-original="#000000" class="active-path" data-old_color="#000000" fill="#F6AB00"/>
	</g>
</g><g>
	<g>
		<path d="M275.152,64.648l-56-24c-2.472-1.064-5.304-0.816-7.552,0.672c-2.248,1.488-3.6,3.992-3.6,6.68v48    c0,2.688,1.352,5.192,3.6,6.68c1.32,0.872,2.856,1.32,4.4,1.32c1.064,0,2.144-0.208,3.152-0.648l56-24    C278.096,78.096,280,75.2,280,72S278.096,65.904,275.152,64.648z M224,83.864V60.136L251.688,72L224,83.864z" data-original="#000000" class="active-path" data-old_color="#000000" fill="#F6AB00"/>
	</g>
</g><g>
	<g>
		<path d="M424,72V56h-24V40h-16v48c0,13.232,10.768,24,24,24h16V96h-16c-4.408,0-8-3.584-8-8V72H424z" data-original="#000000" class="active-path" data-old_color="#000000" fill="#F6AB00"/>
	</g>
</g><g>
	<g>
		<path d="M352,328h-21.544c-1.128-3.2-2.416-6.32-3.848-9.344l15.224-15.224c1.504-1.504,2.344-3.528,2.344-5.656    s-0.84-4.16-2.344-5.656l-33.944-33.936c-3.128-3.128-8.184-3.128-11.312,0L281.352,273.4c-3.024-1.44-6.144-2.728-9.344-3.848    V248c0-4.424-3.584-8-8-8h-48c-4.416,0-8,3.576-8,8v21.544c-3.2,1.128-6.328,2.416-9.344,3.848l-15.224-15.216    c-3.128-3.128-8.184-3.128-11.312,0l-33.944,33.936c-1.504,1.504-2.344,3.528-2.344,5.656s0.84,4.16,2.344,5.656l15.224,15.224    c-1.448,3.032-2.736,6.152-3.864,9.352H128c-4.416,0-8,3.576-8,8v48c0,4.424,3.584,8,8,8h21.544c1.128,3.2,2.416,6.32,3.848,9.344    l-15.224,15.224c-1.504,1.504-2.344,3.528-2.344,5.656s0.84,4.16,2.344,5.656l33.944,33.936c3.128,3.128,8.184,3.128,11.312,0    l15.224-15.216c3.024,1.44,6.144,2.728,9.344,3.848V472c0,4.424,3.584,8,8,8h48c4.416,0,8-3.576,8-8v-21.544    c3.2-1.128,6.328-2.416,9.344-3.848l15.224,15.216c3.128,3.128,8.184,3.128,11.312,0l33.944-33.936    c1.504-1.504,2.344-3.528,2.344-5.656s-0.84-4.16-2.344-5.656l-15.224-15.224c1.44-3.024,2.728-6.144,3.848-9.344H352    c4.416,0,8-3.576,8-8v-48C360,331.576,356.416,328,352,328z M344,376h-19.4c-3.576,0-6.72,2.376-7.696,5.824    c-1.72,6.064-4.096,11.832-7.072,17.152c-1.744,3.128-1.2,7.032,1.328,9.56l13.696,13.696l-22.632,22.624l-13.696-13.696    c-2.528-2.52-6.432-3.072-9.56-1.328c-5.32,2.976-11.088,5.36-17.152,7.08c-3.44,0.968-5.816,4.112-5.816,7.688V464h-32v-19.4    c0-3.576-2.376-6.72-5.816-7.696c-6.064-1.72-11.832-4.104-17.152-7.08c-3.136-1.744-7.032-1.192-9.56,1.328l-13.696,13.696    l-22.632-22.624l13.696-13.696c2.528-2.528,3.072-6.44,1.328-9.56c-2.976-5.32-5.352-11.088-7.072-17.152    c-0.976-3.44-4.12-5.816-7.696-5.816H136v-32h19.4c3.576,0,6.72-2.376,7.696-5.824c1.72-6.064,4.096-11.832,7.072-17.152    c1.744-3.128,1.2-7.032-1.328-9.56l-13.696-13.696l22.632-22.624l13.696,13.696c2.528,2.528,6.44,3.064,9.56,1.328    c5.32-2.976,11.088-5.36,17.152-7.08c3.44-0.968,5.816-4.112,5.816-7.688V256h32v19.4c0,3.576,2.376,6.72,5.816,7.696    c6.064,1.72,11.832,4.104,17.152,7.08c3.136,1.736,7.032,1.2,9.56-1.328l13.696-13.696l22.632,22.624l-13.696,13.696    c-2.528,2.528-3.072,6.44-1.328,9.56c2.976,5.32,5.352,11.088,7.072,17.152c0.976,3.44,4.12,5.816,7.696,5.816H344V376z" data-original="#000000" class="active-path" data-old_color="#000000" fill="#F6AB00"/>
	</g>
</g><g>
	<g>
		<path d="M240,304c-30.88,0-56,25.128-56,56s25.12,56,56,56s56-25.128,56-56S270.88,304,240,304z M240,400    c-22.056,0-40-17.944-40-40c0-22.056,17.944-40,40-40c22.056,0,40,17.944,40,40C280,382.056,262.056,400,240,400z" data-original="#000000" class="active-path" data-old_color="#000000" fill="#F6AB00"/>
	</g>
</g><g>
	<g>
		<path d="M80,196.688V160H64v40c0,2.128,0.84,4.16,2.344,5.656l64,64l11.312-11.312L80,196.688z" data-original="#000000" class="active-path" data-old_color="#000000" fill="#F6AB00"/>
	</g>
</g><g>
	<g>
		<path d="M400,160v36.688l-61.656,61.656l11.312,11.312l64-64C415.16,204.16,416,202.128,416,200v-40H400z" data-original="#000000" class="active-path" data-old_color="#000000" fill="#F6AB00"/>
	</g>
</g><g>
	<g>
		<rect x="232" y="160" width="16" height="64" data-original="#000000" class="active-path" data-old_color="#000000" fill="#F6AB00"/>
	</g>
</g><g>
	<g>
		<rect x="464" y="352" width="16" height="16" data-original="#000000" class="active-path" data-old_color="#000000" fill="#F6AB00"/>
	</g>
</g><g>
	<g>
		<rect x="432" y="352" width="16" height="16" data-original="#000000" class="active-path" data-old_color="#000000" fill="#F6AB00"/>
	</g>
</g><g>
	<g>
		<rect x="432" y="384" width="16" height="16" data-original="#000000" class="active-path" data-old_color="#000000" fill="#F6AB00"/>
	</g>
</g><g>
	<g>
		<rect x="432" y="320" width="16" height="16" data-original="#000000" class="active-path" data-old_color="#000000" fill="#F6AB00"/>
	</g>
</g><g>
	<g>
		<rect x="400" y="352" width="16" height="16" data-original="#000000" class="active-path" data-old_color="#000000" fill="#F6AB00"/>
	</g>
</g><g>
	<g>
		<rect x="464" y="384" width="16" height="16" data-original="#000000" class="active-path" data-old_color="#000000" fill="#F6AB00"/>
	</g>
</g><g>
	<g>
		<rect x="464" y="416" width="16" height="16" data-original="#000000" class="active-path" data-old_color="#000000" fill="#F6AB00"/>
	</g>
</g><g>
	<g>
		<rect x="464" y="320" width="16" height="16" data-original="#000000" class="active-path" data-old_color="#000000" fill="#F6AB00"/>
	</g>
</g><g>
	<g>
		<rect x="464" y="288" width="16" height="16" data-original="#000000" class="active-path" data-old_color="#000000" fill="#F6AB00"/>
	</g>
</g><g>
	<g>
		<rect y="352" width="16" height="16" data-original="#000000" class="active-path" data-old_color="#000000" fill="#F6AB00"/>
	</g>
</g><g>
	<g>
		<rect x="32" y="352" width="16" height="16" data-original="#000000" class="active-path" data-old_color="#000000" fill="#F6AB00"/>
	</g>
</g><g>
	<g>
		<rect x="32" y="320" width="16" height="16" data-original="#000000" class="active-path" data-old_color="#000000" fill="#F6AB00"/>
	</g>
</g><g>
	<g>
		<rect x="32" y="384" width="16" height="16" data-original="#000000" class="active-path" data-old_color="#000000" fill="#F6AB00"/>
	</g>
</g><g>
	<g>
		<rect x="64" y="352" width="16" height="16" data-original="#000000" class="active-path" data-old_color="#000000" fill="#F6AB00"/>
	</g>
</g><g>
	<g>
		<rect y="320" width="16" height="16" data-original="#000000" class="active-path" data-old_color="#000000" fill="#F6AB00"/>
	</g>
</g><g>
	<g>
		<rect y="288" width="16" height="16" data-original="#000000" class="active-path" data-old_color="#000000" fill="#F6AB00"/>
	</g>
</g><g>
	<g>
		<rect y="384" width="16" height="16" data-original="#000000" class="active-path" data-old_color="#000000" fill="#F6AB00"/>
	</g>
</g><g>
	<g>
		<rect y="416" width="16" height="16" data-original="#000000" class="active-path" data-old_color="#000000" fill="#F6AB00"/>
	</g>
</g></g> </svg>
