<?xml version="1.0"?>
<svg xmlns="http://www.w3.org/2000/svg" xmlns:xlink="http://www.w3.org/1999/xlink" version="1.1" id="Capa_1" x="0px" y="0px" viewBox="0 0 512 512" style="enable-background:new 0 0 512 512;" xml:space="preserve" width="512px" height="512px" class=""><g><g>
	<g>
		<path d="M256,0c-33.382,0-60,28.037-60,61c0,33.084,26.916,60,60,60s60-26.916,60-60C316,27.98,289.322,0,256,0z M256,91    c-16.542,0-30-13.458-30-30c0-16.804,13.738-31,30-31c16.262,0,30,14.196,30,31C286,77.542,272.542,91,256,91z" data-original="#000000" class="active-path" data-old_color="#000000" fill="#F6AB00"/>
	</g>
</g><g>
	<g>
		<path d="M256,121c-57.897,0-105,47.103-105,105c0,8.284,6.716,15,15,15h180c8.284,0,15-6.716,15-15    C361,168.103,313.897,121,256,121z M182.507,211c6.97-34.191,37.274-60,73.493-60s66.523,25.809,73.493,60H182.507z" data-original="#000000" class="active-path" data-old_color="#000000" fill="#F6AB00"/>
	</g>
</g><g>
	<g>
		<path d="M406,271c-33.084,0-60,26.916-60,60s26.916,60,60,60s60-26.916,60-60S439.084,271,406,271z M406,361    c-16.542,0-30-13.458-30-30s13.458-30,30-30s30,13.458,30,30S422.542,361,406,361z" data-original="#000000" class="active-path" data-old_color="#000000" fill="#F6AB00"/>
	</g>
</g><g>
	<g>
		<path d="M480.746,422.254C460.592,402.099,434.047,391,406,391c-57.897,0-105,47.552-105,106c0,8.284,6.716,15,15,15h181    c8.284,0,15-6.716,15-15C512,468.953,500.9,442.408,480.746,422.254z M332.467,482c6.892-34.747,37.244-61,73.533-61    c36.079,0,67.256,26.695,74.443,61H332.467z" data-original="#000000" class="active-path" data-old_color="#000000" fill="#F6AB00"/>
	</g>
</g><g>
	<g>
		<path d="M106,271c-33.084,0-60,26.916-60,60s26.916,60,60,60s60-26.916,60-60S139.084,271,106,271z M106,361    c-16.542,0-30-13.458-30-30s13.458-30,30-30s30,13.458,30,30S122.542,361,106,361z" data-original="#000000" class="active-path" data-old_color="#000000" fill="#F6AB00"/>
	</g>
</g><g>
	<g>
		<path d="M106,391c-28.047,0-54.592,11.099-74.746,31.254C11.1,442.408,0,468.953,0,497c0,8.284,6.716,15,15,15h181    c8.284,0,15-6.716,15-15C211,438.552,163.897,391,106,391z M31.557,482c7.187-34.305,38.364-61,74.443-61    c36.289,0,66.642,26.253,73.533,61H31.557z" data-original="#000000" class="active-path" data-old_color="#000000" fill="#F6AB00"/>
	</g>
</g><g>
	<g>
		<path d="M322.708,362.584L271,336.729V286c0-8.284-6.716-15-15-15s-15,6.716-15,15v50.729l-51.708,25.854    c-7.41,3.705-10.413,12.715-6.708,20.125c2.628,5.257,7.925,8.295,13.428,8.295c2.254,0,4.543-0.51,6.696-1.587L256,362.771    l53.292,26.646c2.153,1.077,4.442,1.587,6.696,1.587c5.502,0,10.8-3.039,13.428-8.295    C333.121,375.299,330.118,366.289,322.708,362.584z" data-original="#000000" class="active-path" data-old_color="#000000" fill="#F6AB00"/>
	</g>
</g></g> </svg>
