<?xml version="1.0"?>
<svg xmlns="http://www.w3.org/2000/svg" id="Layer_1" enable-background="new 0 0 480 480" height="512px" viewBox="0 0 480 480" width="512px" class=""><g><path d="m448 22.998h-416c-17.645 0-32 14.355-32 32v288c0 17.645 14.355 32 32 32h172v31c0 4.418 3.582 8 8 8s8-3.582 8-8v-29h40v29c0 4.418 3.582 8 8 8s8-3.582 8-8v-31h172c17.645 0 32-14.355 32-32v-288c0-17.645-14.355-32-32-32zm16 320c0 8.822-7.178 16-16 16h-416c-8.822 0-16-7.178-16-16v-288c0-8.822 7.178-16 16-16h416c8.822 0 16 7.178 16 16zm-104.361 108.377c-1.312 4.219-5.797 6.578-10.015 5.262-67.241-20.918-152.438-20.785-219.247 0-4.217 1.312-8.702-1.041-10.015-5.262-1.313-4.219 1.043-8.703 5.262-10.015 69.913-21.751 158.43-21.879 228.753 0 4.218 1.312 6.574 5.796 5.262 10.015zm-119.639-264.244c-19.457 22.071-56 8.265-56-21.132 0-4.418 3.582-8 8-8s8 3.582 8 8c0 8.822 7.178 16 16 16s16-7.178 16-16c0-4.418 3.582-8 8-8s8 3.582 8 8c0 8.822 7.178 16 16 16s16-7.178 16-16c0-4.418 3.582-8 8-8s8 3.582 8 8c0 8.822 7.178 16 16 16 4.418 0 8 3.582 8 8s-3.582 8-8 8c-9.551 0-18.132-4.211-24-10.868-12.788 14.506-35.24 14.474-48 0zm104-61.133v36.334c0 4.418-3.582 8-8 8s-8-3.582-8-8v-36.334c0-8.822-7.178-16-16-16h-144c-8.822 0-16 7.178-16 16v40c0 8.822 7.178 16 16 16 4.418 0 8 3.582 8 8s-3.582 8-8 8c-5.827 0-11.289-1.573-16-4.305v76.305c0 8.822 7.178 16 16 16h144c8.822 0 16-7.178 16-16v-60c0-4.418 3.582-8 8-8s8 3.582 8 8v60c0 17.645-14.355 32-32 32h-144c-17.645 0-32-14.355-32-32v-144c0-17.645 14.355-32 32-32h144c17.645 0 32 14.355 32 32zm-78 102c4.418 0 8 3.582 8 8s-3.582 8-8 8h-52c-4.418 0-8-3.582-8-8s3.582-8 8-8z" data-original="#000000" class="active-path" data-old_color="#000000" fill="#F6AB00"/></g> </svg>
