<svg xmlns="http://www.w3.org/2000/svg" height="512px" viewBox="0 0 64 64" width="512px" class=""><g><g id="world_wide" data-name="world wide"><path d="m11 22h-4a1 1 0 0 0 -1 1v4a1 1 0 0 0 1 1h4a1 1 0 0 0 1-1v-4a1 1 0 0 0 -1-1zm-1 4h-2v-2h2z" data-original="#000000" class="active-path" data-old_color="#000000" fill="#F6AB00"></path><path d="m19 22h-4a1 1 0 0 0 -1 1v4a1 1 0 0 0 1 1h4a1 1 0 0 0 1-1v-4a1 1 0 0 0 -1-1zm-1 4h-2v-2h2z" data-original="#000000" class="active-path" data-old_color="#000000" fill="#F6AB00"></path><path d="m22 22h14v2h-14z" data-original="#000000" class="active-path" data-old_color="#000000" fill="#F6AB00"></path><path d="m38 22h2v2h-2z" data-original="#000000" class="active-path" data-old_color="#000000" fill="#F6AB00"></path><path d="m22 26h14v2h-14z" data-original="#000000" class="active-path" data-old_color="#000000" fill="#F6AB00"></path><path d="m38 26h2v2h-2z" data-original="#000000" class="active-path" data-old_color="#000000" fill="#F6AB00"></path><path d="m11 6h-4a1 1 0 0 0 -1 1v4a1 1 0 0 0 1 1h4a1 1 0 0 0 1-1v-4a1 1 0 0 0 -1-1zm-1 4h-2v-2h2z" data-original="#000000" class="active-path" data-old_color="#000000" fill="#F6AB00"></path><path d="m19 6h-4a1 1 0 0 0 -1 1v4a1 1 0 0 0 1 1h4a1 1 0 0 0 1-1v-4a1 1 0 0 0 -1-1zm-1 4h-2v-2h2z" data-original="#000000" class="active-path" data-old_color="#000000" fill="#F6AB00"></path><path d="m22 6h14v2h-14z" data-original="#000000" class="active-path" data-old_color="#000000" fill="#F6AB00"></path><path d="m38 6h2v2h-2z" data-original="#000000" class="active-path" data-old_color="#000000" fill="#F6AB00"></path><path d="m22 10h14v2h-14z" data-original="#000000" class="active-path" data-old_color="#000000" fill="#F6AB00"></path><path d="m38 10h2v2h-2z" data-original="#000000" class="active-path" data-old_color="#000000" fill="#F6AB00"></path><path d="m11 38h-4a1 1 0 0 0 -1 1v4a1 1 0 0 0 1 1h4a1 1 0 0 0 1-1v-4a1 1 0 0 0 -1-1zm-1 4h-2v-2h2z" data-original="#000000" class="active-path" data-old_color="#000000" fill="#F6AB00"></path><path d="m19 38h-4a1 1 0 0 0 -1 1v4a1 1 0 0 0 1 1h4a1 1 0 0 0 1-1v-4a1 1 0 0 0 -1-1zm-1 4h-2v-2h2z" data-original="#000000" class="active-path" data-old_color="#000000" fill="#F6AB00"></path><path d="m46 30a15.043 15.043 0 0 0 -2.24.18 3.108 3.108 0 0 0 .24-1.18v-8a3.009 3.009 0 0 0 -3-3h-1v-2h1a3.009 3.009 0 0 0 3-3v-8a3.009 3.009 0 0 0 -3-3h-36a3.009 3.009 0 0 0 -3 3v8a3.009 3.009 0 0 0 3 3h1v2h-1a3.009 3.009 0 0 0 -3 3v8a3.009 3.009 0 0 0 3 3h1v2h-1a3.009 3.009 0 0 0 -3 3v8a3.009 3.009 0 0 0 3 3h25.14a15.993 15.993 0 1 0 15.86-18zm-41-16a1 1 0 0 1 -1-1v-8a1 1 0 0 1 1-1h36a1 1 0 0 1 1 1v8a1 1 0 0 1 -1 1zm33 2v2h-4v-2zm-6 0v2h-18v-2zm-20 0v2h-4v-2zm-7 14a1 1 0 0 1 -1-1v-8a1 1 0 0 1 1-1h36a1 1 0 0 1 1 1v8a1 1 0 0 1 -1 1zm30.88 6.36a16.344 16.344 0 0 0 2.31 1.59 25.732 25.732 0 0 0 -1.16 7.05h-4.98a13.924 13.924 0 0 1 3.83-8.64zm-1.88-2.36v-2h4v.16a16.52 16.52 0 0 0 -2.55 1.84zm3.37 1a13.869 13.869 0 0 1 3.29-1.93 14.094 14.094 0 0 0 -1.75 2.99 13.562 13.562 0 0 1 -1.54-1.06zm-5.37-3v2h-18v-2zm-20 0v2h-4v-2zm18.53 10h-8.53v2h8.14a16.515 16.515 0 0 0 -.14 2h-25a1 1 0 0 1 -1-1v-8a1 1 0 0 1 1-1h28.53a16.072 16.072 0 0 0 -1.37 2h-10.16v2h9.18a15.557 15.557 0 0 0 -.65 2zm1.52 5h4.98a25.732 25.732 0 0 0 1.16 7.05 16.344 16.344 0 0 0 -2.31 1.59 13.924 13.924 0 0 1 -3.83-8.64zm5.32 10a13.562 13.562 0 0 1 1.54-1.06 14.094 14.094 0 0 0 1.75 2.99 13.869 13.869 0 0 1 -3.29-1.93zm7.63 2.83c-1.69-.51-3.2-2.27-4.29-4.79a13.9 13.9 0 0 1 4.29-.99zm0-7.78a15.549 15.549 0 0 0 -4.97 1.11 24.274 24.274 0 0 1 -1-6.16h5.97zm0-7.05h-5.97a24.274 24.274 0 0 1 1-6.16 15.549 15.549 0 0 0 4.97 1.11zm0-7.05a13.9 13.9 0 0 1 -4.29-.99c1.09-2.52 2.6-4.28 4.29-4.79zm14.95 7.05h-4.98a25.732 25.732 0 0 0 -1.16-7.05 16.344 16.344 0 0 0 2.31-1.59 13.924 13.924 0 0 1 3.83 8.64zm-5.32-10a13.562 13.562 0 0 1 -1.54 1.06 14.094 14.094 0 0 0 -1.75-2.99 13.869 13.869 0 0 1 3.29 1.93zm-7.63-2.83c1.69.51 3.2 2.27 4.29 4.79a13.9 13.9 0 0 1 -4.29.99zm0 7.78a15.549 15.549 0 0 0 4.97-1.11 24.274 24.274 0 0 1 1 6.16h-5.97zm0 7.05h5.97a24.274 24.274 0 0 1 -1 6.16 15.549 15.549 0 0 0 -4.97-1.11zm0 12.83v-5.78a13.9 13.9 0 0 1 4.29.99c-1.09 2.52-2.6 4.28-4.29 4.79zm4.34-.9a14.094 14.094 0 0 0 1.75-2.99 13.562 13.562 0 0 1 1.54 1.06 13.869 13.869 0 0 1 -3.29 1.93zm4.78-3.29a16.344 16.344 0 0 0 -2.31-1.59 25.732 25.732 0 0 0 1.16-7.05h4.98a13.924 13.924 0 0 1 -3.83 8.64z" data-original="#000000" class="active-path" data-old_color="#000000" fill="#F6AB00"></path><path d="m46 8h2v2h-2z" data-original="#000000" class="active-path" data-old_color="#000000" fill="#F6AB00"></path><path d="m55 29h2v-20a1 1 0 0 0 -1-1h-6v2h5z" data-original="#000000" class="active-path" data-old_color="#000000" fill="#F6AB00"></path><path d="m7 50h2v2h-2z" data-original="#000000" class="active-path" data-old_color="#000000" fill="#F6AB00"></path><path d="m9 54h-2v4a1 1 0 0 0 1 1h22v-2h-21z" data-original="#000000" class="active-path" data-old_color="#000000" fill="#F6AB00"></path></g></g></svg>