<?xml version="1.0"?>
<svg xmlns="http://www.w3.org/2000/svg" id="Layer_5" enable-background="new 0 0 64 64" height="512px" viewBox="0 0 64 64" width="512px"><g><path d="m57 44.079v-27.079h-2.449l-8 9h-7.551v-4.087l6.453-.586c2.567-.233 4.503-2.337 4.541-4.906l5.006-5.007 3.542 3.542 2.833-11.331-11.331 2.833 3.542 3.542-3.585 3.585.001-9.158c0-1.89-1.537-3.427-3.489-3.427-.939 0-1.822.362-2.484 1.02-.664.66-1.03 1.539-1.029 2.475v9.592l-5.747.525c1.084-1.233 1.747-2.845 1.747-4.612 0-3.86-3.14-7-7-7s-7 3.14-7 7c0 2.047.889 3.886 2.294 5.167-4.149.8-7.294 4.454-7.294 8.833v1.586l-16.707 16.707 1.414 1.414 15.293-15.293v2.586c0 1.017.309 1.962.833 2.753l-9.06 9.06c-6.145 1.283-10.773 3.297-10.773 6.187v6c0 5.252 15.595 8 31 8s31-2.748 31-8v-6c0-2.074-2.385-3.695-6-4.921zm1.625-37.704-1.167 4.669-3.502-3.502zm-36.378 28.792c.79.524 1.736.833 2.753.833v5.191c-1.321.074-2.662.172-4 .295v-5.073zm2.753 8.034v3.835l-4.768-3.468c1.494-.15 3.088-.273 4.768-.367zm4 9.799c1.2 0 2.266-.542 3-1.382.734.84 1.8 1.382 3 1.382 1.858 0 3.411-1.279 3.858-3h21.607c-2.401 2.342-12.794 5-28.465 5-3.895 0-7.464-.165-10.665-.447l4.129-3.723c.667 1.283 1.993 2.17 3.536 2.17zm31.404-5h-21.404v-4.8c12.073.68 19.386 2.936 21.404 4.8zm-5.404-28.495v23.966c-1.246-.338-2.589-.639-4-.904v-18.562zm-7.551 8.495 1.551-1.745v15.968c-1.302-.206-2.644-.383-4-.534v-13.689zm-4.449 0v13.486c-1.338-.123-2.678-.222-4-.295v-13.191zm-13-11.001 1.944-.002c.019 0 .037.003.056.003s.038-.003.058-.003l1.033-.001.909-.083v.087c0 1.103-.897 2-2 2s-2-.897-2-2.001zm-3-6.999c0-2.757 2.243-5 5-5s5 2.243 5 5-2.243 5-5 5-5-2.243-5-5zm-5 14c0-3.522 2.617-6.437 6.008-6.921.043 2.168 1.813 3.921 3.992 3.921 2.206 0 4-1.794 4-4v-.268l9-.818v-11.418c0-.4.156-.775.438-1.056.285-.284.666-.44 1.137-.44.787 0 1.426.64 1.426 1.427l-.001 11.92c0 1.562-1.173 2.846-2.729 2.987l-8.271.753v28.913c0 1.103-.897 2-2 2s-2-.897-2-2v-19h-2v19c0 1.103-.897 2-2 2s-2-.897-2-2v-28h-2v13c-1.654 0-3-1.346-3-3zm-3 14.414v3.276c-1.279.143-2.544.309-3.776.5zm-1.695 5.498 7.109 5.171-5.763 5.196c-9.922-1.155-15.651-3.474-15.651-5.279 0-1.566 4.94-3.835 14.305-5.088zm-14.305 11.088v-2.97c2.823 1.973 8.378 3.373 15 4.174v3.995c-9.518-1.179-15-3.434-15-5.199zm29 6c-4.446 0-8.465-.214-12-.574v-4.003c3.818.382 7.914.577 12 .577 12.102 0 24.316-1.697 29-4.97v2.97c0 2.506-11.033 6-29 6z" data-original="#000000" class="active-path" data-old_color="#000000" fill="#F6AB00"/><path d="m12 15c-.551 0-1-.449-1-1h-2c0 1.302.839 2.402 2 2.816v2.184h2v-2h2v-3c0-1.654-1.346-3-3-3-.551 0-1-.449-1-1v-1h1c.551 0 1 .449 1 1h2c0-1.302-.839-2.402-2-2.816v-2.184h-2v2h-2v3c0 1.654 1.346 3 3 3 .551 0 1 .449 1 1v1z" data-original="#000000" class="active-path" data-old_color="#000000" fill="#F6AB00"/><path d="m5 11h2v2h-2z" data-original="#000000" class="active-path" data-old_color="#000000" fill="#F6AB00"/><path d="m17 11h2v2h-2z" data-original="#000000" class="active-path" data-old_color="#000000" fill="#F6AB00"/><path d="m12 23c6.065 0 11-4.935 11-11s-4.935-11-11-11-11 4.935-11 11 4.935 11 11 11zm0-20c4.962 0 9 4.038 9 9s-4.038 9-9 9-9-4.038-9-9 4.038-9 9-9z" data-original="#000000" class="active-path" data-old_color="#000000" fill="#F6AB00"/></g> </svg>
