<svg xmlns="http://www.w3.org/2000/svg" width="181" height="44" viewBox="0 0 181 44">
  <metadata><?xpacket begin="﻿" id="W5M0MpCehiHzreSzNTczkc9d"?>
<x:xmpmeta xmlns:x="adobe:ns:meta/" x:xmptk="Adobe XMP Core 5.6-c138 79.159824, 2016/09/14-01:09:01        ">
   <rdf:RDF xmlns:rdf="http://www.w3.org/1999/02/22-rdf-syntax-ns#">
      <rdf:Description rdf:about=""/>
   </rdf:RDF>
</x:xmpmeta>
                                                                                                    
                                                                                                    
                                                                                                    
                                                                                                    
                                                                                                    
                                                                                                    
                                                                                                    
                                                                                                    
                                                                                                    
                                                                                                    
                                                                                                    
                                                                                                    
                                                                                                    
                                                                                                    
                                                                                                    
                                                                                                    
                                                                                                    
                                                                                                    
                                                                                                    
                                                                                                    
                           
<?xpacket end="w"?></metadata>
<defs>
    <style>
      .cls-1 {
        fill: #fff;
        fill-rule: evenodd;
      }
    </style>
  </defs>
  <path class="cls-1" d="M0,32H5L8,42H3Z"/>
  <path class="cls-1" d="M15,19l7,23H12L5,19"/>
  <path class="cls-1" d="M26,42H45L31,1H13Z"/>
  <path id="consbie" class="cls-1" d="M59.52,20.836a11.528,11.528,0,0,0,4.62-.9,9.077,9.077,0,0,0,3.472-2.6L64.7,14.648a6.23,6.23,0,0,1-4.928,2.324,6.543,6.543,0,0,1-3.248-.8A5.673,5.673,0,0,1,54.3,13.948a6.543,6.543,0,0,1-.8-3.248,6.544,6.544,0,0,1,.8-3.248,5.673,5.673,0,0,1,2.226-2.226,6.543,6.543,0,0,1,3.248-.8,6.262,6.262,0,0,1,4.928,2.3l2.912-2.688A9.231,9.231,0,0,0,64.154,1.46,12.151,12.151,0,0,0,54.1,1.866a9.716,9.716,0,0,0-3.808,3.612A9.952,9.952,0,0,0,48.908,10.7a9.951,9.951,0,0,0,1.386,5.222A9.716,9.716,0,0,0,54.1,19.534a11.257,11.257,0,0,0,5.418,1.3h0Zm20.636,0a11.357,11.357,0,0,0,5.488-1.316A9.808,9.808,0,0,0,90.88,10.7a9.808,9.808,0,0,0-5.236-8.82,12.13,12.13,0,0,0-10.99,0,9.767,9.767,0,0,0-3.836,3.626A9.9,9.9,0,0,0,69.432,10.7a9.9,9.9,0,0,0,1.386,5.194,9.764,9.764,0,0,0,3.836,3.626,11.436,11.436,0,0,0,5.5,1.316h0Zm0-3.864a6.218,6.218,0,0,1-3.136-.8,5.724,5.724,0,0,1-2.2-2.226,6.543,6.543,0,0,1-.8-3.248,6.544,6.544,0,0,1,.8-3.248,5.724,5.724,0,0,1,2.2-2.226,6.561,6.561,0,0,1,6.272,0,5.728,5.728,0,0,1,2.2,2.226,6.544,6.544,0,0,1,.8,3.248,6.543,6.543,0,0,1-.8,3.248,5.728,5.728,0,0,1-2.2,2.226,6.221,6.221,0,0,1-3.136.8h0ZM107.792,0.9V12.8L98.048,0.9H94.3V20.5h4.48V8.6l9.772,11.9h3.724V0.9h-4.48ZM123.36,20.836a11.475,11.475,0,0,0,4.564-.812,6.308,6.308,0,0,0,2.814-2.2,5.354,5.354,0,0,0,.938-3.066,4.507,4.507,0,0,0-1.022-3.108,6.081,6.081,0,0,0-2.45-1.68,32.04,32.04,0,0,0-3.668-1.064,16.451,16.451,0,0,1-3.206-.966,1.588,1.588,0,0,1-1.05-1.5,1.88,1.88,0,0,1,.91-1.624A5.093,5.093,0,0,1,124,4.2a10.935,10.935,0,0,1,5.432,1.54l1.4-3.444A10.848,10.848,0,0,0,127.7,1.012a15.086,15.086,0,0,0-3.668-.448,11.37,11.37,0,0,0-4.55.812,6.214,6.214,0,0,0-2.786,2.2,5.456,5.456,0,0,0-.924,3.094A4.609,4.609,0,0,0,116.794,9.8a5.955,5.955,0,0,0,2.45,1.708,31.812,31.812,0,0,0,3.668,1.064q1.455,0.336,2.31.616a4.145,4.145,0,0,1,1.4.742,1.459,1.459,0,0,1,.546,1.162,1.734,1.734,0,0,1-.924,1.526,5.545,5.545,0,0,1-2.856.574,11.241,11.241,0,0,1-3.472-.56,10.438,10.438,0,0,1-3-1.484l-1.54,3.416a10.533,10.533,0,0,0,3.486,1.638,16.03,16.03,0,0,0,4.494.63h0Zm25.815-10.528A4.71,4.71,0,0,0,151.779,6a4.342,4.342,0,0,0-1.918-3.724A9.377,9.377,0,0,0,144.359.9h-9.576V20.5h10.136a10.236,10.236,0,0,0,5.838-1.386,4.529,4.529,0,0,0,2-3.962,4.9,4.9,0,0,0-.952-3.066,5.172,5.172,0,0,0-2.632-1.778h0ZM143.8,4.316a4.643,4.643,0,0,1,2.548.574,1.926,1.926,0,0,1,.868,1.722,1.96,1.96,0,0,1-.868,1.736,4.552,4.552,0,0,1-2.548.588h-4.508V4.316H143.8Zm0.784,12.768h-5.292V12.24h5.292q3.612,0,3.612,2.436a2.013,2.013,0,0,1-.91,1.82,5.026,5.026,0,0,1-2.7.588h0ZM156.2,20.5h4.536V0.9H156.2V20.5ZM169.9,16.86V12.324H179V8.8h-9.1V4.54h10.3V0.9H165.387V20.5h15.176V16.86H169.9Z"/>
  <path id="Business_Template" data-name="Business Template" class="cls-1" d="M57.826,36.307a2.221,2.221,0,0,0,1.02-.787,2.168,2.168,0,0,0,.37-1.28,2.014,2.014,0,0,0-.838-1.729,3.95,3.95,0,0,0-2.36-.611H52.093V41h4.186a4.312,4.312,0,0,0,2.555-.63,2.1,2.1,0,0,0,.864-1.8,2.231,2.231,0,0,0-.488-1.489,2.414,2.414,0,0,0-1.384-.773h0Zm-1.872-3.614a2.927,2.927,0,0,1,1.7.422,1.561,1.561,0,0,1,0,2.457,2.925,2.925,0,0,1-1.7.422h-2.9v-3.3h2.9Zm0.312,7.514H53.055V36.788h3.211q2.47,0,2.47,1.7a1.451,1.451,0,0,1-.624,1.3,3.344,3.344,0,0,1-1.846.416h0Zm11.193-6.045V37.75a2.544,2.544,0,0,1-.624,1.827,2.238,2.238,0,0,1-1.7.656,2,2,0,0,1-1.521-.559,2.285,2.285,0,0,1-.533-1.638V34.162H62.155v3.965a2.647,2.647,0,0,0,2.886,2.938,3.012,3.012,0,0,0,1.456-.344,2.532,2.532,0,0,0,1-.968V41h0.884V34.162H67.459Zm5.863,6.9a3.554,3.554,0,0,0,2.073-.526,1.654,1.654,0,0,0,.748-1.423,1.467,1.467,0,0,0-.351-1.04,1.93,1.93,0,0,0-.845-0.533,11.973,11.973,0,0,0-1.313-.312A10.157,10.157,0,0,1,72.594,37a1.556,1.556,0,0,1-.63-0.344,0.808,0.808,0,0,1-.254-0.624,0.956,0.956,0,0,1,.448-0.819,2.336,2.336,0,0,1,1.333-.312,3.452,3.452,0,0,1,2.015.585l0.4-.741a3.653,3.653,0,0,0-1.092-.462,5.163,5.163,0,0,0-1.326-.175,3.21,3.21,0,0,0-1.989.546,1.691,1.691,0,0,0-.715,1.4,1.536,1.536,0,0,0,.358,1.079,1.966,1.966,0,0,0,.865.552,11.435,11.435,0,0,0,1.339.319,8.985,8.985,0,0,1,1,.215,1.643,1.643,0,0,1,.624.325,0.743,0.743,0,0,1,.247.591,0.931,0.931,0,0,1-.449.826,2.582,2.582,0,0,1-1.384.292,4.286,4.286,0,0,1-1.352-.215,3.5,3.5,0,0,1-1.079-.553l-0.416.728a3.424,3.424,0,0,0,1.19.6,5.244,5.244,0,0,0,1.593.24h0ZM78.366,41h0.923V34.162H78.366V41Zm0.468-8.333a0.666,0.666,0,0,0,.676-0.676,0.6,0.6,0,0,0-.2-0.448,0.666,0.666,0,0,0-.481-0.189,0.654,0.654,0,0,0-.481.2,0.624,0.624,0,0,0-.195.455,0.638,0.638,0,0,0,.195.468,0.654,0.654,0,0,0,.481.2h0Zm7.033,1.443a3.351,3.351,0,0,0-1.553.345,2.567,2.567,0,0,0-1.047.968V34.162H82.383V41h0.923V37.412a2.48,2.48,0,0,1,.644-1.813,2.337,2.337,0,0,1,1.748-.657,2,2,0,0,1,1.521.559,2.267,2.267,0,0,1,.533,1.625V41h0.923V37.035a2.92,2.92,0,0,0-.76-2.177,2.794,2.794,0,0,0-2.047-.748h0ZM97.7,37.581a3.7,3.7,0,0,0-.429-1.8,3.134,3.134,0,0,0-1.183-1.229,3.306,3.306,0,0,0-1.7-.442,3.341,3.341,0,0,0-1.71.442,3.155,3.155,0,0,0-1.2,1.235,3.664,3.664,0,0,0-.435,1.794,3.538,3.538,0,0,0,.455,1.794,3.233,3.233,0,0,0,1.267,1.242,3.8,3.8,0,0,0,1.865.448,3.846,3.846,0,0,0,1.5-.286,2.927,2.927,0,0,0,1.137-.832l-0.52-.6a2.554,2.554,0,0,1-.923.67,2.95,2.95,0,0,1-1.17.227,2.718,2.718,0,0,1-1.872-.657,2.444,2.444,0,0,1-.819-1.723h5.72ZM94.381,34.9a2.342,2.342,0,0,1,1.671.63,2.477,2.477,0,0,1,.76,1.645H91.963a2.476,2.476,0,0,1,.761-1.645,2.325,2.325,0,0,1,1.657-.63h0Zm7.553,6.162a3.557,3.557,0,0,0,2.074-.526,1.654,1.654,0,0,0,.747-1.423,1.467,1.467,0,0,0-.351-1.04,1.925,1.925,0,0,0-.845-0.533,11.945,11.945,0,0,0-1.313-.312,10.206,10.206,0,0,1-1.04-.227,1.557,1.557,0,0,1-.63-0.344,0.809,0.809,0,0,1-.254-0.624,0.956,0.956,0,0,1,.449-0.819A2.336,2.336,0,0,1,102.1,34.9a3.451,3.451,0,0,1,2.015.585l0.4-.741a3.653,3.653,0,0,0-1.092-.462,5.163,5.163,0,0,0-1.326-.175,3.212,3.212,0,0,0-1.989.546,1.691,1.691,0,0,0-.715,1.4,1.536,1.536,0,0,0,.358,1.079,1.966,1.966,0,0,0,.864.552,11.475,11.475,0,0,0,1.339.319,8.959,8.959,0,0,1,1,.215,1.631,1.631,0,0,1,.624.325,0.741,0.741,0,0,1,.247.591,0.93,0.93,0,0,1-.448.826,2.584,2.584,0,0,1-1.385.292,4.289,4.289,0,0,1-1.352-.215,3.5,3.5,0,0,1-1.079-.553l-0.416.728a3.424,3.424,0,0,0,1.19.6,5.245,5.245,0,0,0,1.592.24h0Zm6.877,0a3.557,3.557,0,0,0,2.074-.526,1.654,1.654,0,0,0,.747-1.423,1.467,1.467,0,0,0-.351-1.04,1.925,1.925,0,0,0-.845-0.533,11.945,11.945,0,0,0-1.313-.312,10.206,10.206,0,0,1-1.04-.227,1.557,1.557,0,0,1-.63-0.344,0.809,0.809,0,0,1-.254-0.624,0.956,0.956,0,0,1,.449-0.819,2.336,2.336,0,0,1,1.332-.312,3.451,3.451,0,0,1,2.015.585l0.4-.741a3.653,3.653,0,0,0-1.092-.462,5.163,5.163,0,0,0-1.326-.175,3.212,3.212,0,0,0-1.989.546,1.693,1.693,0,0,0-.715,1.4,1.534,1.534,0,0,0,.358,1.079,1.964,1.964,0,0,0,.864.552,11.475,11.475,0,0,0,1.339.319,8.959,8.959,0,0,1,1,.215,1.631,1.631,0,0,1,.624.325,0.741,0.741,0,0,1,.247.591,0.93,0.93,0,0,1-.448.826,2.584,2.584,0,0,1-1.385.292,4.289,4.289,0,0,1-1.352-.215,3.5,3.5,0,0,1-1.079-.553l-0.416.728a3.427,3.427,0,0,0,1.19.6,5.245,5.245,0,0,0,1.592.24h0ZM119.744,41h0.962V32.732h3.2V31.9h-7.358v0.832h3.2V41Zm11.271-3.419a3.7,3.7,0,0,0-.429-1.8,3.131,3.131,0,0,0-1.183-1.229,3.513,3.513,0,0,0-3.412,0,3.153,3.153,0,0,0-1.2,1.235,3.658,3.658,0,0,0-.436,1.794,3.542,3.542,0,0,0,.455,1.794,3.23,3.23,0,0,0,1.268,1.242,3.793,3.793,0,0,0,1.865.448,3.849,3.849,0,0,0,1.5-.286,2.922,2.922,0,0,0,1.137-.832l-0.52-.6a2.556,2.556,0,0,1-.923.67,2.947,2.947,0,0,1-1.17.227,2.718,2.718,0,0,1-1.872-.657,2.444,2.444,0,0,1-.819-1.723H131ZM127.7,34.9a2.345,2.345,0,0,1,1.671.63,2.479,2.479,0,0,1,.76,1.645h-4.849a2.476,2.476,0,0,1,.761-1.645,2.323,2.323,0,0,1,1.657-.63h0Zm14.248-.793a3.35,3.35,0,0,0-1.619.383,2.664,2.664,0,0,0-1.085,1.06,2.236,2.236,0,0,0-.943-1.079,2.925,2.925,0,0,0-1.488-.364,3.192,3.192,0,0,0-1.495.338,2.459,2.459,0,0,0-1.014.962V34.162H133.42V41h0.923V37.412a2.545,2.545,0,0,1,.617-1.813,2.186,2.186,0,0,1,1.671-.657,1.886,1.886,0,0,1,1.462.559,2.319,2.319,0,0,1,.514,1.625V41h0.923V37.412a2.556,2.556,0,0,1,.611-1.813,2.178,2.178,0,0,1,1.677-.657,1.868,1.868,0,0,1,1.449.559,2.319,2.319,0,0,1,.514,1.625V41H144.7V37.035a2.976,2.976,0,0,0-.735-2.184,2.716,2.716,0,0,0-2.021-.741h0Zm9.308,0a3.226,3.226,0,0,0-1.541.364,2.841,2.841,0,0,0-1.1,1.04V34.162h-0.884v9.36h0.923V39.713a2.845,2.845,0,0,0,1.1,1.008,3.236,3.236,0,0,0,1.5.344A3.5,3.5,0,0,0,153,40.63,3.127,3.127,0,0,0,154.22,39.4a3.941,3.941,0,0,0,0-3.627A3.119,3.119,0,0,0,153,34.546a3.513,3.513,0,0,0-1.742-.435h0Zm-0.065,6.136a2.581,2.581,0,0,1-1.307-.332,2.358,2.358,0,0,1-.91-0.942,2.869,2.869,0,0,1-.331-1.391,2.832,2.832,0,0,1,.331-1.385,2.416,2.416,0,0,1,.91-0.943,2.682,2.682,0,0,1,2.607,0,2.4,2.4,0,0,1,.916.943,2.832,2.832,0,0,1,.332,1.385,2.87,2.87,0,0,1-.332,1.391,2.339,2.339,0,0,1-.916.942,2.592,2.592,0,0,1-1.3.332h0ZM157.067,41h0.923V31.354h-0.923V41Zm6.409-6.89a4.855,4.855,0,0,0-1.534.24,3.682,3.682,0,0,0-1.248.683l0.416,0.689a3.142,3.142,0,0,1,1.027-.592,3.663,3.663,0,0,1,1.248-.215,2.043,2.043,0,0,1,1.443.462,1.754,1.754,0,0,1,.494,1.346v0.416h-2.171a3.086,3.086,0,0,0-2.009.533,1.879,1.879,0,0,0,.046,2.847,2.811,2.811,0,0,0,1.82.546,3.205,3.205,0,0,0,1.436-.3,2.117,2.117,0,0,0,.917-0.832V41h0.884V36.762a2.59,2.59,0,0,0-.715-1.983,2.9,2.9,0,0,0-2.054-.669h0Zm-0.325,6.227a2.07,2.07,0,0,1-1.274-.345,1.116,1.116,0,0,1-.455-0.943q0-1.222,1.755-1.222h2.145v1.118a2.138,2.138,0,0,1-.832,1.034,2.432,2.432,0,0,1-1.339.358h0Zm9.4-.416a1.369,1.369,0,0,1-.462.26,1.7,1.7,0,0,1-.552.091,1.159,1.159,0,0,1-.878-0.319,1.29,1.29,0,0,1-.3-0.929V34.942h2.08v-0.78h-2.08V32.667H169.43v1.495h-1.222v0.78h1.222v4.134a1.811,1.811,0,0,0,2,1.989,2.593,2.593,0,0,0,.8-0.123,1.752,1.752,0,0,0,.644-0.357Zm8.242-2.34a3.7,3.7,0,0,0-.429-1.8,3.138,3.138,0,0,0-1.183-1.229,3.308,3.308,0,0,0-1.7-.442,3.342,3.342,0,0,0-1.71.442,3.153,3.153,0,0,0-1.2,1.235,3.668,3.668,0,0,0-.435,1.794,3.532,3.532,0,0,0,.455,1.794,3.228,3.228,0,0,0,1.267,1.242,3.8,3.8,0,0,0,1.866.448,3.844,3.844,0,0,0,1.5-.286,2.933,2.933,0,0,0,1.138-.832l-0.52-.6a2.556,2.556,0,0,1-.923.67,2.954,2.954,0,0,1-1.17.227,2.718,2.718,0,0,1-1.872-.657,2.444,2.444,0,0,1-.819-1.723h5.72ZM177.477,34.9a2.341,2.341,0,0,1,1.67.63,2.48,2.48,0,0,1,.761,1.645h-4.849a2.475,2.475,0,0,1,.76-1.645,2.325,2.325,0,0,1,1.658-.63h0Z"/>
</svg>
