<?xml version="1.0" encoding="iso-8859-1"?>
<!-- Generator: Adobe Illustrator 19.0.0, SVG Export Plug-In . SVG Version: 6.00 Build 0)  -->
<svg version="1.1" id="Capa_1" xmlns="http://www.w3.org/2000/svg" xmlns:xlink="http://www.w3.org/1999/xlink" x="0px" y="0px"
	 viewBox="0 0 512.003 512.003" style="enable-background:new 0 0 512.003 512.003;" xml:space="preserve">
<g>
	<g>
		<path d="M163.95,96.722c-3.916-3.906-10.254-3.906-14.17,0c-3.906,3.916-3.906,10.254,0,14.17c3.915,3.906,10.254,3.906,14.17,0
			C167.856,106.976,167.856,100.637,163.95,96.722z"/>
	</g>
</g>
<g>
	<g>
		<path d="M509.106,397.302L417,304.244c19.172-30.344,29.27-65.187,29.27-101.301c0-104.914-85.353-190.268-190.268-190.268
			S65.735,98.028,65.735,202.942c0,36.114,10.098,70.957,29.27,101.3L2.897,397.3c-2.592,2.618-3.536,6.448-2.459,9.97
			c1.076,3.524,4.001,6.171,7.613,6.894l57.727,11.547c1.942,0.388,3.714,1.335,5.101,2.717c1.405,1.41,2.357,3.192,2.751,5.127
			l11.536,57.721c0.725,3.629,3.394,6.563,6.939,7.628c0.948,0.284,1.918,0.424,2.88,0.424c2.633,0,5.205-1.039,7.114-2.965
			L209.94,387.556c15.02,3.747,30.485,5.653,46.062,5.653s31.043-1.906,46.062-5.653l107.842,108.807
			c1.909,1.926,4.481,2.965,7.114,2.965c0.961,0,1.932-0.139,2.88-0.424c3.545-1.065,6.214-3.999,6.939-7.628l11.531-57.694
			c0.398-1.962,1.351-3.743,2.733-5.131c1.409-1.404,3.182-2.352,5.129-2.74l57.721-11.546c3.611-0.723,6.535-3.37,7.613-6.894
			C512.642,403.749,511.697,399.919,509.106,397.302z M101.117,468.902l-7.854-39.297c-0.504-2.482-1.325-4.861-2.408-7.109
			l34.7-35.56c3.862-3.959,3.784-10.298-0.173-14.162c-3.96-3.861-10.297-3.784-14.162,0.173l-34.578,35.435
			c-2.2-1.038-4.522-1.826-6.942-2.308l-39.487-7.899l76.547-77.34c21.382,27.003,49.7,47.778,81.671,59.972L101.117,468.902z
			 M302.31,366.777c-0.009,0.003-0.018,0.005-0.026,0.007c-15.011,4.244-30.582,6.397-46.284,6.397
			c-15.702,0-31.273-2.154-46.285-6.398c-0.008-0.002-0.016-0.004-0.024-0.006c-0.02-0.006-0.041-0.01-0.061-0.016
			c-37.774-10.7-71.002-34.482-93.564-66.967c-19.827-28.552-30.307-62.042-30.307-96.852C85.76,109.071,162.13,32.702,256,32.702
			s170.239,76.369,170.239,170.239c0,34.81-10.48,68.3-30.306,96.852c-22.562,32.485-55.79,56.267-93.565,66.967
			C302.349,366.767,302.329,366.771,302.31,366.777z M442.306,406.071c-2.418,0.483-4.74,1.269-6.94,2.307l-31.706-32.551
			c-3.859-3.963-10.198-4.046-14.161-0.186c-3.962,3.859-4.045,10.199-0.186,14.161l31.836,32.685
			c-1.086,2.255-1.911,4.643-2.417,7.143l-7.849,39.271l-87.313-88.095c31.971-12.194,60.288-32.969,81.671-59.971l76.546,77.338
			L442.306,406.071z"/>
	</g>
</g>
<g>
	<g>
		<path d="M355.41,166.099c-1.179-3.626-4.313-6.268-8.084-6.817l-57.176-8.306L264.59,99.17c-1.686-3.418-5.167-5.583-8.98-5.583
			c-0.001,0-0.001,0-0.001,0c-3.811,0-7.293,2.164-8.981,5.582l-25.569,51.808l-57.177,8.306c-3.772,0.549-6.906,3.19-8.084,6.817
			c-1.178,3.625-0.195,7.605,2.535,10.265l41.372,40.328l-9.766,56.948c-0.644,3.757,0.9,7.555,3.985,9.795
			c3.084,2.24,7.173,2.535,10.546,0.761l51.138-26.89l51.127,26.89c1.466,0.771,3.066,1.151,4.661,1.151
			c2.076,0,4.142-0.645,5.886-1.912c3.084-2.24,4.629-6.037,3.985-9.795l-9.766-56.948l41.372-40.328
			C355.606,173.704,356.587,169.724,355.41,166.099z M293.753,206.024c-2.36,2.301-3.438,5.615-2.881,8.865l7.226,42.134
			l-37.827-19.894c-2.918-1.535-6.404-1.535-9.322,0l-37.838,19.896l7.226-42.136c0.557-3.249-0.521-6.563-2.88-8.864
			l-30.612-29.838l42.305-6.146c3.262-0.475,6.082-2.524,7.541-5.479l18.918-38.331l18.911,38.33
			c1.458,2.956,4.278,5.005,7.541,5.48l42.305,6.146L293.753,206.024z"/>
	</g>
</g>
<g>
	<g>
		<path d="M256,52.73c-25.064,0-49.904,6.331-71.834,18.309c-4.855,2.651-6.64,8.735-3.989,13.588
			c2.651,4.856,8.736,6.639,13.588,3.989C212.761,78.241,234.281,72.757,256,72.757c71.784,0,130.183,58.399,130.183,130.183
			S327.784,333.123,256,333.123S125.817,274.724,125.817,202.94c0-21.732,5.487-43.254,15.867-62.241
			c2.653-4.853,0.869-10.937-3.984-13.59c-4.851-2.65-10.937-0.869-13.59,3.984c-11.987,21.924-18.322,46.769-18.322,71.848
			c0,82.826,67.385,150.211,150.211,150.211s150.211-67.385,150.211-150.211S338.826,52.73,256,52.73z"/>
	</g>
</g>
<g>
</g>
<g>
</g>
<g>
</g>
<g>
</g>
<g>
</g>
<g>
</g>
<g>
</g>
<g>
</g>
<g>
</g>
<g>
</g>
<g>
</g>
<g>
</g>
<g>
</g>
<g>
</g>
<g>
</g>
</svg>
