<svg xmlns="http://www.w3.org/2000/svg" width="181" height="43" viewBox="0 0 181 43">
  <metadata><?xpacket begin="﻿" id="W5M0MpCehiHzreSzNTczkc9d"?>
<x:xmpmeta xmlns:x="adobe:ns:meta/" x:xmptk="Adobe XMP Core 5.6-c138 79.159824, 2016/09/14-01:09:01        ">
   <rdf:RDF xmlns:rdf="http://www.w3.org/1999/02/22-rdf-syntax-ns#">
      <rdf:Description rdf:about=""/>
   </rdf:RDF>
</x:xmpmeta>
                                                                                                    
                                                                                                    
                                                                                                    
                                                                                                    
                                                                                                    
                                                                                                    
                                                                                                    
                                                                                                    
                                                                                                    
                                                                                                    
                                                                                                    
                                                                                                    
                                                                                                    
                                                                                                    
                                                                                                    
                                                                                                    
                                                                                                    
                                                                                                    
                                                                                                    
                                                                                                    
                           
<?xpacket end="w"?></metadata>
<defs>
    <style>
      .cls-1 {
        fill: #222;
      }

      .cls-1, .cls-2 {
        fill-rule: evenodd;
      }

      .cls-2 {
        fill: #3353ea;
      }
    </style>
  </defs>
  <path id="consbie" class="cls-1" d="M59.435,19.824a11.116,11.116,0,0,0,4.455-.864,8.754,8.754,0,0,0,3.348-2.511L64.43,13.857A6.008,6.008,0,0,1,59.678,16.1a6.309,6.309,0,0,1-3.132-.769A5.47,5.47,0,0,1,54.4,13.182a6.309,6.309,0,0,1-.77-3.132,6.31,6.31,0,0,1,.77-3.132,5.47,5.47,0,0,1,2.147-2.147A6.309,6.309,0,0,1,59.678,4,6.039,6.039,0,0,1,64.43,6.216l2.808-2.592A8.9,8.9,0,0,0,63.9,1.14a11.717,11.717,0,0,0-9.693.392,9.369,9.369,0,0,0-3.672,3.483A9.6,9.6,0,0,0,49.2,10.05a9.6,9.6,0,0,0,1.337,5.035,9.369,9.369,0,0,0,3.672,3.483,10.854,10.854,0,0,0,5.224,1.256h0Zm20.3,0a10.951,10.951,0,0,0,5.292-1.269,9.458,9.458,0,0,0,5.049-8.5,9.458,9.458,0,0,0-5.049-8.505,11.7,11.7,0,0,0-10.6,0,9.418,9.418,0,0,0-3.7,3.5A9.546,9.546,0,0,0,69.4,10.05a9.545,9.545,0,0,0,1.337,5.009,9.416,9.416,0,0,0,3.7,3.5,11.027,11.027,0,0,0,5.306,1.269h0Zm0-3.726a6,6,0,0,1-3.024-.769,5.52,5.52,0,0,1-2.12-2.146,6.309,6.309,0,0,1-.77-3.132,6.31,6.31,0,0,1,.77-3.132,5.52,5.52,0,0,1,2.12-2.147,6.327,6.327,0,0,1,6.048,0,5.523,5.523,0,0,1,2.119,2.147,6.31,6.31,0,0,1,.77,3.132,6.309,6.309,0,0,1-.77,3.132,5.523,5.523,0,0,1-2.119,2.146,6,6,0,0,1-3.024.769h0ZM107.2,0.6V12.075L97.8,0.6H94.183V19.5H98.5V8.025L107.926,19.5h3.591V0.6H107.2Zm15.822,19.224a11.064,11.064,0,0,0,4.4-.783,6.078,6.078,0,0,0,2.714-2.119,5.16,5.16,0,0,0,.9-2.957,4.344,4.344,0,0,0-.985-3,5.861,5.861,0,0,0-2.363-1.62,30.877,30.877,0,0,0-3.537-1.026,15.87,15.87,0,0,1-3.091-.931,1.531,1.531,0,0,1-1.013-1.445,1.814,1.814,0,0,1,.878-1.566,4.912,4.912,0,0,1,2.713-.594,10.541,10.541,0,0,1,5.238,1.485l1.35-3.321A10.453,10.453,0,0,0,127.2.708a14.542,14.542,0,0,0-3.537-.432,10.962,10.962,0,0,0-4.387.783,6,6,0,0,0-2.687,2.12,5.261,5.261,0,0,0-.891,2.984,4.448,4.448,0,0,0,.986,3.024,5.742,5.742,0,0,0,2.362,1.647,30.711,30.711,0,0,0,3.537,1.026q1.4,0.324,2.228.594a3.993,3.993,0,0,1,1.35.716,1.407,1.407,0,0,1,.526,1.12,1.672,1.672,0,0,1-.891,1.472,5.348,5.348,0,0,1-2.754.553,10.842,10.842,0,0,1-3.348-.54,10.074,10.074,0,0,1-2.889-1.431l-1.485,3.294a10.166,10.166,0,0,0,3.362,1.579,15.46,15.46,0,0,0,4.333.608h0Zm25.7-10.152a4.544,4.544,0,0,0,2.511-4.158,4.188,4.188,0,0,0-1.85-3.591A9.039,9.039,0,0,0,144.079.6h-9.234V19.5h9.774a9.868,9.868,0,0,0,5.629-1.337,4.368,4.368,0,0,0,1.931-3.82,4.727,4.727,0,0,0-.918-2.956,4.986,4.986,0,0,0-2.538-1.714h0Zm-5.184-5.778A4.476,4.476,0,0,1,146,4.448a1.858,1.858,0,0,1,.837,1.66A1.891,1.891,0,0,1,146,7.782a4.388,4.388,0,0,1-2.457.567h-4.347V3.894h4.347Zm0.756,12.312h-5.1V11.535h5.1q3.483,0,3.483,2.349a1.942,1.942,0,0,1-.878,1.755,4.845,4.845,0,0,1-2.605.567h0ZM156.31,19.5h4.374V0.6H156.31V19.5Zm14.013-3.51V11.616H179.1v-3.4h-8.775V4.11h9.936V0.6H165.976V19.5H180.61V15.99H170.323Z"/>
  <path id="Business_Template" data-name="Business Template" class="cls-1" d="M57.866,35.307a2.222,2.222,0,0,0,1.02-.787,2.168,2.168,0,0,0,.37-1.28,2.014,2.014,0,0,0-.839-1.729,3.95,3.95,0,0,0-2.359-.611H52.133V40h4.186a4.312,4.312,0,0,0,2.554-.63,2.1,2.1,0,0,0,.865-1.8,2.231,2.231,0,0,0-.488-1.489,2.414,2.414,0,0,0-1.384-.773h0Zm-1.872-3.614a2.927,2.927,0,0,1,1.7.422,1.561,1.561,0,0,1,0,2.457,2.925,2.925,0,0,1-1.7.422h-2.9v-3.3h2.9Zm0.312,7.514H53.095V35.788h3.211q2.47,0,2.47,1.7a1.451,1.451,0,0,1-.624,1.3,3.344,3.344,0,0,1-1.846.416h0Zm11.063-6.045V36.75a2.544,2.544,0,0,1-.624,1.827,2.238,2.238,0,0,1-1.7.656,2,2,0,0,1-1.521-.559,2.285,2.285,0,0,1-.533-1.638V33.162H62.065v3.965a2.647,2.647,0,0,0,2.886,2.938,3.011,3.011,0,0,0,1.456-.344,2.531,2.531,0,0,0,1-.968V40h0.884V33.162H67.369Zm5.733,6.9a3.554,3.554,0,0,0,2.074-.526,1.654,1.654,0,0,0,.748-1.423,1.467,1.467,0,0,0-.351-1.04,1.929,1.929,0,0,0-.845-0.533,11.973,11.973,0,0,0-1.313-.312A10.163,10.163,0,0,1,72.374,36a1.556,1.556,0,0,1-.63-0.344,0.808,0.808,0,0,1-.254-0.624,0.956,0.956,0,0,1,.448-0.819,2.336,2.336,0,0,1,1.333-.312,3.452,3.452,0,0,1,2.015.585l0.4-.741a3.653,3.653,0,0,0-1.092-.462,5.163,5.163,0,0,0-1.326-.175,3.21,3.21,0,0,0-1.989.546,1.691,1.691,0,0,0-.715,1.4,1.536,1.536,0,0,0,.358,1.079,1.967,1.967,0,0,0,.865.552,11.44,11.44,0,0,0,1.339.319,8.985,8.985,0,0,1,1,.215,1.642,1.642,0,0,1,.624.325,0.743,0.743,0,0,1,.247.591,0.931,0.931,0,0,1-.449.826,2.582,2.582,0,0,1-1.384.292,4.286,4.286,0,0,1-1.352-.215,3.5,3.5,0,0,1-1.079-.553l-0.416.728a3.424,3.424,0,0,0,1.19.6,5.245,5.245,0,0,0,1.592.24h0ZM78.016,40h0.923V33.162H78.016V40Zm0.468-8.333a0.666,0.666,0,0,0,.676-0.676,0.6,0.6,0,0,0-.2-0.448,0.666,0.666,0,0,0-.481-0.189,0.653,0.653,0,0,0-.481.2,0.624,0.624,0,0,0-.2.455,0.638,0.638,0,0,0,.2.468,0.653,0.653,0,0,0,.481.2h0Zm6.9,1.443a3.351,3.351,0,0,0-1.553.345,2.567,2.567,0,0,0-1.046.968V33.162H81.9V40h0.923V36.412a2.48,2.48,0,0,1,.644-1.813,2.337,2.337,0,0,1,1.749-.657,2,2,0,0,1,1.521.559,2.267,2.267,0,0,1,.533,1.625V40h0.923V36.035a2.92,2.92,0,0,0-.76-2.177,2.794,2.794,0,0,0-2.047-.748h0Zm11.7,3.471a3.7,3.7,0,0,0-.429-1.8,3.135,3.135,0,0,0-1.183-1.229,3.307,3.307,0,0,0-1.7-.442,3.34,3.34,0,0,0-1.71.442,3.154,3.154,0,0,0-1.2,1.235,3.663,3.663,0,0,0-.436,1.794,3.537,3.537,0,0,0,.455,1.794,3.232,3.232,0,0,0,1.268,1.242,3.8,3.8,0,0,0,1.865.448,3.846,3.846,0,0,0,1.5-.286,2.928,2.928,0,0,0,1.138-.832l-0.52-.6a2.555,2.555,0,0,1-.923.67,2.95,2.95,0,0,1-1.17.227,2.718,2.718,0,0,1-1.872-.657,2.444,2.444,0,0,1-.819-1.723h5.72ZM93.772,33.9a2.343,2.343,0,0,1,1.67.63,2.478,2.478,0,0,1,.761,1.645H91.354a2.475,2.475,0,0,1,.761-1.645,2.325,2.325,0,0,1,1.657-.63h0Zm7.422,6.162a3.557,3.557,0,0,0,2.074-.526,1.654,1.654,0,0,0,.747-1.423,1.467,1.467,0,0,0-.351-1.04,1.925,1.925,0,0,0-.845-0.533,11.945,11.945,0,0,0-1.313-.312,10.206,10.206,0,0,1-1.04-.227,1.56,1.56,0,0,1-.63-0.344,0.808,0.808,0,0,1-.254-0.624,0.955,0.955,0,0,1,.449-0.819,2.336,2.336,0,0,1,1.332-.312,3.451,3.451,0,0,1,2.015.585l0.4-.741a3.653,3.653,0,0,0-1.092-.462,5.163,5.163,0,0,0-1.326-.175,3.21,3.21,0,0,0-1.989.546,1.691,1.691,0,0,0-.715,1.4,1.536,1.536,0,0,0,.358,1.079,1.967,1.967,0,0,0,.864.552,11.453,11.453,0,0,0,1.339.319,8.959,8.959,0,0,1,1,.215,1.631,1.631,0,0,1,.624.325,0.741,0.741,0,0,1,.247.591,0.93,0.93,0,0,1-.448.826,2.584,2.584,0,0,1-1.385.292,4.286,4.286,0,0,1-1.352-.215,3.5,3.5,0,0,1-1.079-.553l-0.416.728a3.424,3.424,0,0,0,1.189.6,5.247,5.247,0,0,0,1.592.24h0Zm6.747,0a3.557,3.557,0,0,0,2.074-.526,1.654,1.654,0,0,0,.747-1.423,1.467,1.467,0,0,0-.351-1.04,1.925,1.925,0,0,0-.845-0.533,11.945,11.945,0,0,0-1.313-.312,10.206,10.206,0,0,1-1.04-.227,1.557,1.557,0,0,1-.63-0.344,0.809,0.809,0,0,1-.254-0.624,0.956,0.956,0,0,1,.449-0.819,2.336,2.336,0,0,1,1.332-.312,3.451,3.451,0,0,1,2.015.585l0.4-.741a3.653,3.653,0,0,0-1.092-.462,5.163,5.163,0,0,0-1.326-.175,3.212,3.212,0,0,0-1.989.546,1.693,1.693,0,0,0-.715,1.4,1.534,1.534,0,0,0,.358,1.079,1.964,1.964,0,0,0,.864.552,11.475,11.475,0,0,0,1.339.319,8.959,8.959,0,0,1,1,.215,1.631,1.631,0,0,1,.624.325,0.741,0.741,0,0,1,.247.591,0.93,0.93,0,0,1-.448.826,2.584,2.584,0,0,1-1.385.292,4.289,4.289,0,0,1-1.352-.215,3.5,3.5,0,0,1-1.079-.553l-0.416.728a3.427,3.427,0,0,0,1.19.6,5.245,5.245,0,0,0,1.592.24h0ZM118.614,40h0.962V31.732h3.2V30.9h-7.358v0.832h3.2V40Zm11.141-3.419a3.7,3.7,0,0,0-.429-1.8,3.131,3.131,0,0,0-1.183-1.229,3.513,3.513,0,0,0-3.412,0,3.153,3.153,0,0,0-1.2,1.235,3.658,3.658,0,0,0-.436,1.794,3.542,3.542,0,0,0,.455,1.794,3.23,3.23,0,0,0,1.268,1.242,3.793,3.793,0,0,0,1.865.448,3.849,3.849,0,0,0,1.5-.286,2.922,2.922,0,0,0,1.137-.832l-0.52-.6a2.556,2.556,0,0,1-.923.67,2.947,2.947,0,0,1-1.17.227,2.718,2.718,0,0,1-1.872-.657,2.444,2.444,0,0,1-.819-1.723h5.72ZM126.44,33.9a2.345,2.345,0,0,1,1.671.63,2.479,2.479,0,0,1,.76,1.645h-4.849a2.476,2.476,0,0,1,.761-1.645,2.323,2.323,0,0,1,1.657-.63h0Zm14.118-.793a3.344,3.344,0,0,0-1.618.383,2.661,2.661,0,0,0-1.086,1.06,2.24,2.24,0,0,0-.942-1.079,2.931,2.931,0,0,0-1.489-.364,3.194,3.194,0,0,0-1.5.338,2.472,2.472,0,0,0-1.014.962V33.162H132.03V40h0.923V36.412a2.541,2.541,0,0,1,.618-1.813,2.182,2.182,0,0,1,1.67-.657,1.888,1.888,0,0,1,1.463.559,2.323,2.323,0,0,1,.513,1.625V40h0.923V36.412a2.56,2.56,0,0,1,.611-1.813,2.178,2.178,0,0,1,1.677-.657,1.872,1.872,0,0,1,1.45.559,2.323,2.323,0,0,1,.513,1.625V40h0.923V36.035a2.98,2.98,0,0,0-.734-2.184,2.72,2.72,0,0,0-2.022-.741h0Zm9.178,0a3.226,3.226,0,0,0-1.541.364,2.841,2.841,0,0,0-1.1,1.04V33.162h-0.884v9.36h0.923V38.713a2.845,2.845,0,0,0,1.1,1.008,3.236,3.236,0,0,0,1.5.344,3.5,3.5,0,0,0,1.748-.435A3.127,3.127,0,0,0,152.7,38.4a3.941,3.941,0,0,0,0-3.627,3.119,3.119,0,0,0-1.222-1.229,3.513,3.513,0,0,0-1.742-.435h0Zm-0.065,6.136a2.581,2.581,0,0,1-1.307-.332,2.358,2.358,0,0,1-.91-0.942,2.869,2.869,0,0,1-.331-1.391,2.832,2.832,0,0,1,.331-1.385,2.416,2.416,0,0,1,.91-0.943,2.682,2.682,0,0,1,2.607,0,2.4,2.4,0,0,1,.916.943,2.832,2.832,0,0,1,.332,1.385,2.87,2.87,0,0,1-.332,1.391,2.339,2.339,0,0,1-.916.942,2.592,2.592,0,0,1-1.3.332h0ZM155.417,40h0.923V30.354h-0.923V40Zm6.279-6.89a4.855,4.855,0,0,0-1.534.24,3.682,3.682,0,0,0-1.248.683l0.416,0.689a3.142,3.142,0,0,1,1.027-.592,3.663,3.663,0,0,1,1.248-.215,2.043,2.043,0,0,1,1.443.462,1.754,1.754,0,0,1,.494,1.346v0.416h-2.171a3.088,3.088,0,0,0-2.009.533,1.879,1.879,0,0,0,.046,2.847,2.811,2.811,0,0,0,1.82.546,3.205,3.205,0,0,0,1.436-.3,2.117,2.117,0,0,0,.917-0.832V40h0.884V35.762a2.59,2.59,0,0,0-.715-1.983,2.9,2.9,0,0,0-2.054-.669h0Zm-0.325,6.227a2.07,2.07,0,0,1-1.274-.345,1.116,1.116,0,0,1-.455-0.943q0-1.222,1.755-1.222h2.145v1.118a2.138,2.138,0,0,1-.832,1.034,2.432,2.432,0,0,1-1.339.358h0Zm9.269-.416a1.369,1.369,0,0,1-.462.26,1.7,1.7,0,0,1-.552.091,1.159,1.159,0,0,1-.878-0.319,1.29,1.29,0,0,1-.3-0.929V33.942h2.08v-0.78h-2.08V31.667H167.52v1.495H166.3v0.78h1.222v4.134a1.811,1.811,0,0,0,2,1.989,2.593,2.593,0,0,0,.8-0.123,1.752,1.752,0,0,0,.644-0.357Zm8.112-2.34a3.7,3.7,0,0,0-.429-1.8,3.138,3.138,0,0,0-1.183-1.229,3.308,3.308,0,0,0-1.7-.442,3.342,3.342,0,0,0-1.71.442,3.153,3.153,0,0,0-1.2,1.235,3.668,3.668,0,0,0-.435,1.794,3.532,3.532,0,0,0,.455,1.794,3.228,3.228,0,0,0,1.267,1.242,3.8,3.8,0,0,0,1.866.448,3.844,3.844,0,0,0,1.5-.286,2.933,2.933,0,0,0,1.138-.832l-0.52-.6a2.556,2.556,0,0,1-.923.67,2.954,2.954,0,0,1-1.17.227,2.718,2.718,0,0,1-1.872-.657,2.444,2.444,0,0,1-.819-1.723h5.72ZM175.437,33.9a2.341,2.341,0,0,1,1.67.63,2.48,2.48,0,0,1,.761,1.645h-4.849a2.475,2.475,0,0,1,.76-1.645,2.325,2.325,0,0,1,1.658-.63h0Z"/>
  <g>
    <path class="cls-2" d="M0,31H5L8,41H3Z"/>
    <path class="cls-2" d="M5,18H15l7,23H12Z"/>
    <path class="cls-2" d="M13,0H31L45,41H27Z"/>
  </g>
</svg>
